<svg id="Layer_1" data-name="Layer 1" xmlns="http://www.w3.org/2000/svg" viewBox="0 0 28 28"><defs><style>.cls-1{fill:#fff;}.cls-2{fill:#fdb92b;}</style></defs><rect class="cls-1" x="8.57" y="13.3" width="10.85" height="1.4"/><path class="cls-2" d="M18.66,27.66H9.34a9,9,0,0,1-9-9V9.34a9,9,0,0,1,9-9h9.32a9,9,0,0,1,9,9v9.32a9,9,0,0,1-9,9"/><polygon class="cls-1" points="19.43 13.3 14.7 13.3 14.7 8.57 13.3 8.57 13.3 13.3 8.57 13.3 8.57 14.7 13.3 14.7 13.3 19.43 14.7 19.43 14.7 14.7 19.43 14.7 19.43 13.3"/></svg>