<svg id="Layer_1" data-name="Layer 1" xmlns="http://www.w3.org/2000/svg" viewBox="0 0 53 68"><defs><style>.cls-1{fill:#fcb82a;}</style></defs><path class="cls-1" d="M47,25.1h0L28.3,1A2.1,2.1,0,0,0,26.6.2,1.8,1.8,0,0,0,25,1L6.1,24.9v.2A26.4,26.4,0,1,0,52.9,41.7,26.5,26.5,0,0,0,47,25.1Zm1.7,16.6A22.2,22.2,0,1,1,9.5,27.6c0-.1.1-.1.1-.2l17-21.7,17,21.9h.1A22.2,22.2,0,0,1,48.7,41.7Z"/><path class="cls-1" d="M43.6,43.1a2.2,2.2,0,0,0-2.5,1.6,14.4,14.4,0,0,1-8.6,10,2.5,2.5,0,0,0-1.1,1.2,2.2,2.2,0,0,0,0,1.6,2.1,2.1,0,0,0,1.9,1.3h.8a18.8,18.8,0,0,0,11.1-13A2.1,2.1,0,0,0,43.6,43.1Z"/><path class="cls-1" d="M41.5,37.6a2.1,2.1,0,0,0,4.2,0,2.1,2.1,0,1,0-4.2,0Z"/></svg>